<svg width="24" height="24" viewBox="0 0 24 24" fill="none" xmlns="http://www.w3.org/2000/svg">
<path fill-rule="evenodd" clip-rule="evenodd" d="M12.716 5.01612C14.4042 3.32796 17.1956 3.32796 18.8838 5.01612C20.5719 6.70427 20.5719 9.49573 18.8838 11.1839L15.8029 14.2647C14.3366 15.8525 11.9504 15.936 10.3065 14.8401C9.7321 14.4571 9.57689 13.681 9.95983 13.1066C10.3428 12.5322 11.1189 12.377 11.6933 12.7599C12.4412 13.2585 13.4394 13.1483 13.975 12.5592C13.9883 12.5445 14.002 12.5301 14.016 12.5161L17.116 9.41612C17.8278 8.70427 17.8278 7.49573 17.116 6.78388C16.4296 6.09752 15.2815 6.07295 14.5621 6.71017L14.44 6.89337C14.057 7.46779 13.2809 7.623 12.7065 7.24006C12.1321 6.85712 11.9769 6.08104 12.3598 5.50663L12.5598 5.20663C12.6055 5.13814 12.6578 5.07432 12.716 5.01612Z" fill="#848485"/>
<path fill-rule="evenodd" clip-rule="evenodd" d="M8.15916 9.67524C9.6314 8.33684 11.8971 7.98549 13.65 9.30017C14.2023 9.71438 14.3142 10.4979 13.9 11.0502C13.4858 11.6025 12.7023 11.7144 12.15 11.3002C11.5107 10.8208 10.5912 10.8624 9.86735 11.5014L6.7978 14.6699L6.78388 14.6841C6.07204 15.3959 6.07204 16.6045 6.78388 17.3163C7.49573 18.0282 8.70427 18.0282 9.41612 17.3163L9.71612 17.0163C10.2043 16.5282 10.9957 16.5282 11.4839 17.0163C11.972 17.5045 11.972 18.2959 11.4839 18.7841L11.1839 19.0841C9.49573 20.7722 6.70427 20.7722 5.01612 19.0841C3.3305 17.3985 3.32797 14.6129 5.00851 12.9239L8.1022 9.73042C8.1206 9.71143 8.13959 9.69303 8.15916 9.67524Z" fill="#848485"/>
</svg>
