<svg width="12" height="22" viewBox="0 0 12 22" fill="none" xmlns="http://www.w3.org/2000/svg">
<path d="M11.7075 11.7076L1.70751 21.7076C1.6146 21.8005 1.5043 21.8742 1.3829 21.9245C1.26151 21.9747 1.1314 22.0006 1.00001 22.0006C0.868612 22.0006 0.738503 21.9747 0.61711 21.9245C0.495717 21.8742 0.385416 21.8005 0.292506 21.7076C0.199596 21.6147 0.125896 21.5044 0.075613 21.383C0.0253304 21.2616 -0.000549316 21.1315 -0.000549316 21.0001C-0.000549316 20.8687 0.0253304 20.7386 0.075613 20.6172C0.125896 20.4958 0.199596 20.3855 0.292506 20.2926L9.58626 11.0001L0.292506 1.70757C0.104866 1.51993 -0.000549318 1.26543 -0.000549316 1.00007C-0.000549314 0.734704 0.104866 0.480208 0.292506 0.292568C0.480147 0.104927 0.734643 -0.000488279 1.00001 -0.000488281C1.26537 -0.000488283 1.51987 0.104927 1.70751 0.292568L11.7075 10.2926C11.8005 10.3854 11.8742 10.4957 11.9246 10.6171C11.9749 10.7385 12.0008 10.8687 12.0008 11.0001C12.0008 11.1315 11.9749 11.2616 11.9246 11.383C11.8742 11.5044 11.8005 11.6147 11.7075 11.7076Z" fill="#999999"/>
</svg>
